<?xml version="1.0" encoding="UTF-8"?>
<!-- Generator: visioncortex VTracer 0.6.5 -->
<svg version="1.1" xmlns="http://www.w3.org/2000/svg" width="1024" height="1024">

<path d="M0 0 C3.07 1.2 5.75 2.34 8.41 4.28 C8.71 4.49 8.71 4.49 10.22 5.58 C10.83 6.03 11.44 6.48 12.06 6.94 C12.67 7.38 13.29 7.82 13.92 8.28 C15.62 9.51 17.31 10.75 19 12 C19.68 12.38 20.37 12.75 21.07 13.14 C23 15 23 15 23.49 18.1 C23.51 19.4 23.5 20.7 23.48 22 C23.48 22.72 23.49 23.44 23.49 24.18 C23.5 26.59 23.48 29 23.45 31.41 C23.45 33.13 23.45 34.85 23.46 36.58 C23.46 41.27 23.43 45.95 23.41 50.64 C23.38 55.54 23.38 60.44 23.37 65.33 C23.36 74.61 23.33 83.88 23.29 93.16 C23.24 103.72 23.22 114.27 23.2 124.83 C23.16 146.56 23.09 168.28 23 190 C23.79 190.31 24.58 190.62 25.4 190.94 C27.58 191.83 29.12 192.63 30.96 194.04 C31.5 194.45 32.04 194.85 32.6 195.27 C32.89 195.5 32.89 195.5 34.38 196.62 C40.83 201.45 47.38 206.1 54 210.69 C54.49 211.03 54.97 211.36 55.48 211.71 C57.98 213.45 60.49 215.18 63 216.92 C67.84 220.27 72.67 223.64 77.5 227 C79.41 228.33 81.33 229.66 83.24 230.99 C83.71 231.32 84.19 231.65 84.67 231.99 C88.07 234.35 91.46 236.71 94.86 239.07 C100.57 243.04 106.29 247.02 112 251 C112.44 251.31 112.44 251.31 114.66 252.85 C124.45 259.67 134.2 266.53 143.83 273.56 C145.18 274.55 146.54 275.53 147.91 276.5 C149.4 277.57 150.88 278.67 152.34 279.78 C153.12 280.35 153.9 280.91 154.71 281.5 C155.06 281.76 155.06 281.76 156.84 283.09 C159 284 159 284 161.55 283.3 C163.65 282.18 165.58 281.06 167.5 279.67 C167.83 279.44 167.83 279.44 169.47 278.27 C170.16 277.77 170.85 277.27 171.56 276.75 C173.09 275.66 174.62 274.56 176.15 273.47 C176.95 272.9 177.75 272.33 178.57 271.74 C182.57 268.88 186.6 266.07 190.62 263.25 C191.45 262.67 192.28 262.09 193.13 261.5 C200.07 256.65 207.01 251.81 213.96 246.98 C223.17 240.58 232.36 234.15 241.55 227.72 C244.86 225.4 248.18 223.07 251.5 220.75 C253.16 219.59 254.82 218.43 256.48 217.26 C260.76 214.27 265.04 211.28 269.32 208.29 C271.07 207.07 272.81 205.85 274.56 204.62 C274.98 204.33 274.98 204.33 277.09 202.86 C282.5 199.08 287.84 195.23 293.1 191.26 C295 190 295 190 297 190 C296.99 189.11 296.98 188.21 296.97 187.29 C296.72 165.51 296.54 143.74 296.43 121.96 C296.37 111.43 296.3 100.9 296.17 90.37 C296.06 81.19 295.99 72.01 295.97 62.83 C295.95 57.97 295.92 53.11 295.84 48.26 C295.76 43.68 295.74 39.1 295.76 34.53 C295.75 32.85 295.73 31.17 295.69 29.49 C295.39 17.16 295.39 17.16 298.08 13.55 C301.02 10.7 304.37 8.85 308 7 C309.16 6.24 310.31 5.48 311.45 4.69 C312.33 4.13 313.21 3.57 314.12 3 C315.04 2.42 315.95 1.85 316.88 1.25 C319 0 319 0 320 0 C320.55 25.59 320.97 51.17 321.23 76.77 C321.26 79.79 321.29 82.82 321.32 85.85 C321.32 86.45 321.33 87.06 321.34 87.68 C321.44 97.41 321.63 107.14 321.85 116.87 C322.08 126.88 322.21 136.88 322.26 146.88 C322.29 152.5 322.36 158.1 322.54 163.71 C323.6 198.88 323.6 198.88 317.66 206.41 C312.41 211.91 305.85 215.01 298.86 217.77 C294.76 219.54 291.46 222.03 288 224.81 C286.83 225.69 285.66 226.57 284.48 227.44 C283.91 227.86 283.34 228.28 282.76 228.72 C279 231.46 275.15 234.06 271.31 236.68 C266 240.31 260.71 243.99 255.44 247.69 C248.14 252.81 240.82 257.91 233.5 263 C226.26 268.03 219.03 273.07 211.81 278.12 C211 278.69 210.19 279.26 209.35 279.85 C205.22 282.74 201.1 285.63 196.98 288.53 C192.83 291.44 188.68 294.34 184.52 297.24 C182.8 298.44 181.08 299.65 179.36 300.86 C176.76 302.69 174.16 304.5 171.56 306.31 C170.78 306.87 169.99 307.43 169.18 308 C168.81 308.26 168.81 308.26 166.94 309.55 C166.3 310 165.66 310.45 164.99 310.92 C162.59 312.22 160.73 312.78 158 313 C156.03 312.09 156.03 312.09 154.14 310.64 C153.78 310.37 153.78 310.37 151.98 309.03 C151.22 308.44 150.47 307.85 149.69 307.25 C148.07 306.03 146.44 304.82 144.82 303.61 C144.41 303.3 144.41 303.3 142.36 301.75 C139.01 299.26 135.58 296.9 132.12 294.56 C126.2 290.52 120.31 286.43 114.44 282.31 C107.2 277.24 99.95 272.17 92.69 267.12 C92.21 266.79 91.73 266.46 91.24 266.12 C86.34 262.71 81.43 259.3 76.52 255.89 C67.49 249.62 58.47 243.35 49.5 237 C42.83 232.28 36.14 227.6 29.44 222.94 C29.19 222.77 29.19 222.77 27.95 221.91 C23 218.46 18.03 215.02 13.05 211.61 C12.3 211.1 11.56 210.59 10.8 210.06 C9.43 209.13 8.06 208.2 6.7 207.27 C6.4 207.07 6.4 207.07 4.89 206.04 C4.37 205.69 3.86 205.34 3.33 204.98 C2 204 2 204 0 202 C-0.19 199.33 -0.26 196.76 -0.24 194.09 C-0.24 193.26 -0.24 192.44 -0.25 191.59 C-0.25 188.8 -0.24 186.02 -0.23 183.23 C-0.23 181.24 -0.23 179.25 -0.23 177.26 C-0.23 171.84 -0.22 166.42 -0.2 161.01 C-0.19 155.35 -0.19 149.7 -0.19 144.04 C-0.18 134.54 -0.17 125.04 -0.15 115.55 C-0.13 105.76 -0.12 95.98 -0.11 86.19 C-0.11 85.59 -0.11 84.99 -0.11 84.37 C-0.11 81.34 -0.1 78.32 -0.1 75.29 C-0.08 50.2 -0.04 25.1 0 0 Z " fill="#21CFCD" transform="translate(352,420)"/>
<path d="M0 0 C3.39 1.25 6.22 2.67 9.16 4.77 C9.94 5.32 10.73 5.87 11.53 6.44 C12.37 7.04 13.2 7.64 14.06 8.25 C15.87 9.53 17.67 10.8 19.47 12.08 C20.39 12.73 21.31 13.38 22.26 14.06 C26.49 17.06 30.75 20.03 35 23 C36.66 24.16 38.33 25.33 39.99 26.49 C43.36 28.85 46.73 31.21 50.11 33.57 C57.85 38.99 65.59 44.41 73.31 49.88 C83.83 57.31 94.42 64.65 105 72 C126.92 87.22 126.92 87.22 137.06 94.38 C137.74 94.85 138.42 95.32 139.12 95.81 C142.45 98.16 145.74 100.55 148.98 103.03 C149.3 103.27 149.3 103.27 150.91 104.48 C152.1 105.38 153.28 106.3 154.45 107.23 C156.05 108.43 156.05 108.43 159 110 C163.54 109.2 167.2 105.81 170.81 103.06 C176.03 99.16 181.3 95.36 186.69 91.69 C192.67 87.6 198.63 83.47 204.56 79.31 C211.86 74.19 219.18 69.09 226.5 64 C239.86 54.71 253.21 45.39 266.5 36 C275.06 29.95 283.64 23.94 292.23 17.94 C294.72 16.19 297.21 14.44 299.7 12.69 C301.82 11.2 303.95 9.71 306.07 8.22 C307.1 7.49 308.13 6.77 309.16 6.04 C310.6 5.02 312.04 4.02 313.48 3.01 C313.89 2.72 313.89 2.72 315.98 1.25 C318 0 318 0 320 0 C322.35 23.68 322.35 23.68 318.79 30.23 C315.52 33.77 311.42 35.85 307.13 37.92 C303.68 39.67 300.64 41.94 297.5 44.19 C296.17 45.1 294.83 46.01 293.5 46.92 C288.16 50.56 282.86 54.25 277.56 57.94 C277.07 58.28 276.57 58.63 276.06 58.98 C269.11 63.82 262.18 68.68 255.27 73.57 C243.21 82.1 231.09 90.55 218.96 98.98 C214.64 101.99 210.32 104.99 206 108 C205.12 108.61 204.23 109.23 203.33 109.86 C193.46 116.73 183.63 123.66 173.91 130.74 C172.56 131.72 171.2 132.7 169.84 133.67 C168.66 134.52 167.49 135.4 166.34 136.29 C164.03 138 162.49 138.99 159.58 139.05 C155.94 137.57 152.94 135.47 149.75 133.19 C149.05 132.7 148.35 132.2 147.63 131.7 C145.41 130.14 143.21 128.57 141 127 C139.63 126.03 138.25 125.06 136.88 124.09 C134.08 122.12 131.28 120.15 128.48 118.17 C123.67 114.76 118.83 111.38 114 108 C107.88 103.72 101.78 99.44 95.69 95.12 C88.06 89.73 80.4 84.4 72.73 79.07 C62.32 71.84 51.94 64.56 41.56 57.29 C39.1 55.57 36.65 53.85 34.19 52.12 C33.38 51.56 32.58 51 31.75 50.42 C27.06 47.14 22.37 43.86 17.66 40.6 C17.4 40.41 17.4 40.41 16.06 39.48 C13.45 37.67 10.85 35.87 8.25 34.06 C7.32 33.42 6.39 32.77 5.43 32.11 C4.59 31.53 3.76 30.95 2.91 30.36 C1 29 1 29 0 28 C-0.09 25.91 -0.12 23.86 -0.1 21.78 C-0.1 21.16 -0.09 20.54 -0.09 19.9 C-0.09 17.91 -0.08 15.92 -0.06 13.94 C-0.06 12.59 -0.05 11.25 -0.05 9.9 C-0.04 6.6 -0.02 3.3 0 0 Z " fill="#1A91E2" transform="translate(352,293)"/>
<path d="M0 0 C4.17 1.32 7.22 2.64 10.69 5.31 C15.67 9.07 20.77 12.62 25.94 16.12 C33.81 21.48 41.63 26.92 49.41 32.42 C50.2 32.97 50.99 33.53 51.8 34.1 C52.5 34.59 53.19 35.08 53.9 35.58 C56 37 56 37 58.73 38.28 C61 40 61 40 61.57 42.91 C61.57 44.08 61.54 45.25 61.49 46.42 C61.48 47.04 61.47 47.65 61.47 48.29 C61.44 50.26 61.38 52.22 61.31 54.19 C61.29 55.52 61.26 56.86 61.24 58.19 C61.19 61.46 61.1 64.73 61 68 C57.64 67.37 55.46 66.13 52.69 64.16 C52.28 63.86 52.28 63.86 50.17 62.38 C49.31 61.76 48.45 61.14 47.56 60.5 C45.88 59.3 44.19 58.1 42.5 56.91 C41.68 56.32 40.86 55.74 40.02 55.14 C36.75 52.82 33.45 50.53 30.16 48.26 C29.56 47.84 28.97 47.43 28.35 47.01 C26.9 46.01 25.45 45 24 44 C23.63 52.67 23.34 61.35 23.17 70.03 C23.09 74.06 22.98 78.09 22.79 82.12 C21.64 108.25 21.64 108.25 25.62 114.58 C30.06 119.09 33.87 120.43 40 123 C40 115.74 40 108.48 40 101 C42.97 102.65 45.94 104.3 49 106 C50.15 106.51 51.3 107.02 52.48 107.54 C56.2 109.55 58.92 111.25 61 115 C62.89 122.89 62.19 131.22 61.82 139.26 C61.7 142.28 61.65 145.29 61.59 148.31 C61.45 154.21 61.25 160.1 61 166 C58.02 164.54 55.31 162.93 52.57 161.05 C52.14 160.75 52.14 160.75 49.94 159.25 C49.01 158.61 48.08 157.97 47.12 157.31 C46.15 156.64 45.17 155.97 44.19 155.3 C42.15 153.91 40.12 152.51 38.08 151.11 C35.1 149.06 32.11 147.02 29.11 144.99 C28.16 144.34 27.21 143.69 26.23 143.02 C24.44 141.8 22.64 140.58 20.85 139.36 C19.19 138.23 17.54 137.08 15.92 135.89 C13.7 134.46 12.07 133.59 9.68 132.67 C5.59 130.88 2.4 128.85 0 125 C-2.31 116.64 -1.55 107.44 -1.32 98.85 C-1.24 95.37 -1.23 91.89 -1.21 88.41 C-1.17 81.83 -1.07 75.26 -0.94 68.68 C-0.79 61.19 -0.72 53.7 -0.65 46.2 C-0.52 30.8 -0.29 15.4 0 0 Z " fill="#1FC3CD" transform="translate(441,449)"/>
<path d="M0 0 C0.37 16.24 0.66 32.47 0.83 48.72 C0.91 56.26 1.02 63.8 1.21 71.34 C1.37 77.91 1.47 84.49 1.51 91.07 C1.53 94.55 1.57 98.02 1.69 101.5 C2.37 122.58 2.37 122.58 -1.52 128.2 C-5.17 131.76 -9.27 133.98 -13.91 136.01 C-17.4 137.66 -20.45 139.93 -23.56 142.19 C-23.92 142.43 -23.92 142.43 -25.72 143.67 C-31.38 147.57 -37.04 151.49 -42.69 155.42 C-43.72 156.13 -44.75 156.85 -45.78 157.56 C-47.24 158.57 -48.69 159.58 -50.14 160.59 C-50.56 160.89 -50.56 160.89 -52.69 162.37 C-54.21 163.44 -55.71 164.56 -57.18 165.71 C-59 167 -59 167 -61 167 C-61.28 160.51 -61.49 154.02 -61.62 147.52 C-61.68 144.5 -61.77 141.48 -61.91 138.47 C-62.84 117.41 -62.84 117.41 -58.59 112.54 C-55.7 110.05 -52.49 108.54 -49 107 C-46.03 105.35 -43.06 103.7 -40 102 C-40 109.26 -40 116.52 -40 124 C-37.55 122.37 -35.09 120.74 -32.56 119.06 C-32.18 118.81 -32.18 118.81 -30.22 117.51 C-29.61 117.1 -29 116.7 -28.38 116.29 C-28.07 116.08 -28.07 116.08 -26.49 115.03 C-25 114 -25 114 -24 113 C-23.91 110.87 -23.87 108.77 -23.89 106.64 C-23.89 105.98 -23.89 105.32 -23.89 104.63 C-23.89 102.43 -23.89 100.23 -23.9 98.03 C-23.9 96.5 -23.91 94.98 -23.91 93.46 C-23.91 89.44 -23.92 85.43 -23.93 81.41 C-23.94 77.31 -23.95 73.22 -23.95 69.12 C-23.96 61.08 -23.98 53.04 -24 45 C-24.56 45.39 -25.12 45.79 -25.7 46.19 C-28.29 48.01 -30.87 49.82 -33.46 51.63 C-34.34 52.25 -35.22 52.87 -36.13 53.51 C-41.6 57.34 -47.09 61.13 -52.62 64.88 C-53.24 65.3 -53.86 65.72 -54.49 66.15 C-58.77 69 -58.77 69 -61 69 C-63.33 45.34 -63.33 45.34 -59.9 38.95 C-56.72 35.68 -52.58 34.04 -48.46 32.22 C-44.13 30.07 -40.31 27.18 -36.39 24.35 C-33.96 22.61 -31.51 20.91 -29.05 19.21 C-28.56 18.86 -28.07 18.52 -27.56 18.17 C-22.42 14.59 -17.27 11.04 -12.1 7.51 C-10.65 6.51 -9.19 5.52 -7.74 4.52 C-6.87 3.93 -6 3.33 -5.1 2.72 C-4.33 2.19 -3.56 1.67 -2.77 1.12 C-1 0 -1 0 0 0 Z " fill="#1DC3CE" transform="translate(583,448)"/>
<path d="M0 0 C2.99 24.32 2.99 24.32 -1.56 31.44 C-5.83 35.54 -11.01 38.07 -16.3 40.62 C-20.74 42.89 -24.7 45.8 -28.75 48.69 C-30.18 49.67 -31.61 50.66 -33.05 51.64 C-33.4 51.89 -33.4 51.89 -35.18 53.15 C-37.34 54.57 -39.42 55.77 -41.71 56.96 C-51.7 62.43 -51.7 62.43 -53.85 66.69 C-55.15 71.35 -54.83 76.1 -54.62 80.88 C-54.61 82.46 -54.6 84.05 -54.6 85.63 C-54.59 89.03 -54.53 92.42 -54.43 95.81 C-54.28 101.19 -54.24 106.56 -54.22 111.93 C-54.16 122.36 -53.99 132.79 -53.8 143.22 C-53.57 156.5 -53.38 169.79 -53.31 183.07 C-53.27 188.41 -53.18 193.74 -53.04 199.08 C-52.97 202.4 -52.94 205.72 -52.92 209.04 C-52.91 210.58 -52.87 212.11 -52.81 213.65 C-52.4 225.2 -52.4 225.2 -56.33 229.61 C-59.02 231.76 -61.97 233.37 -65 235 C-66.9 236.21 -68.76 237.48 -70.62 238.75 C-71.16 239.1 -71.69 239.45 -72.25 239.82 C-77.76 243.45 -83.11 247.3 -88.48 251.14 C-89.18 251.64 -89.88 252.14 -90.61 252.66 C-91.24 253.11 -91.87 253.56 -92.52 254.03 C-94 255 -94 255 -95 255 C-96.23 248.72 -97.18 242.14 -95 236 C-90.61 230.76 -84.4 227.49 -78.43 224.35 C-77.62 223.9 -76.82 223.46 -76 223 C-75.5 222.75 -74.99 222.5 -74.47 222.24 C-72.77 221.28 -71.4 220.37 -70 219 C-69.42 216.39 -69.27 214.69 -69.39 212.09 C-69.39 211.39 -69.4 210.7 -69.41 209.98 C-69.44 207.65 -69.51 205.32 -69.58 202.99 C-69.6 201.32 -69.63 199.65 -69.65 197.98 C-69.7 194.38 -69.77 190.78 -69.85 187.18 C-69.98 181.48 -70.04 175.77 -70.09 170.07 C-70.23 153.84 -70.4 137.62 -70.76 121.4 C-70.95 112.44 -71.07 103.48 -71.09 94.52 C-71.11 89.78 -71.17 85.05 -71.33 80.32 C-72.28 50.7 -72.28 50.7 -66.87 43.99 C-62.05 38.98 -56.04 36 -49.71 33.26 C-45.62 31.36 -42.15 28.77 -38.56 26.06 C-37.22 25.1 -35.87 24.14 -34.52 23.19 C-33.81 22.69 -33.1 22.19 -32.38 21.68 C-27.54 18.26 -22.67 14.88 -17.81 11.5 C-17.56 11.33 -17.56 11.33 -16.31 10.45 C-1.3 0 -1.3 0 0 0 Z " fill="#1EB4D2" transform="translate(672,366)"/>
<path d="M0 0 C5.61 3.07 10.79 6.55 16 10.25 C17.78 11.5 19.55 12.76 21.33 14.01 C22.26 14.66 23.18 15.31 24.14 15.99 C28.48 19.05 32.86 22.08 37.23 25.11 C44.79 30.36 52.35 35.63 59.88 40.94 C60.23 41.19 60.23 41.19 62.04 42.46 C62.36 42.69 62.36 42.69 63.99 43.84 C64.55 44.24 65.11 44.63 65.69 45.04 C67 46 67 46 68 47 C68.07 49.18 68.07 51.33 68.02 53.52 C68.01 54.21 68.01 54.9 68 55.61 C67.98 57.13 67.95 58.64 67.93 60.16 C67.86 64.38 67.81 68.6 67.75 72.83 C67.74 73.73 67.73 74.63 67.72 75.56 C67.56 87.11 67.51 98.66 67.45 110.21 C67.4 121.45 67.31 132.69 67.12 143.94 C66.97 152.87 66.89 161.79 66.89 170.72 C66.89 175.44 66.85 180.16 66.73 184.88 C66 214.45 66 214.45 70.97 220.94 C75.56 225.55 80.71 228.47 86.67 230.99 C89.78 232.34 92.31 233.95 95 236 C95.68 238.11 95.68 238.11 95.59 240.33 C95.58 240.73 95.58 240.73 95.53 242.75 C95.48 243.58 95.43 244.4 95.38 245.25 C95.36 245.67 95.36 245.67 95.29 247.8 C95.22 249.87 95.12 251.93 95 254 C91.38 252.68 88.39 251.07 85.23 248.88 C84.32 248.25 83.41 247.62 82.47 246.98 C81.53 246.33 80.59 245.67 79.62 245 C77.78 243.73 75.94 242.46 74.1 241.19 C73.2 240.54 72.29 239.9 71.36 239.24 C69.04 237.64 66.68 236.27 64.18 234.96 C54.29 229.56 54.29 229.56 52.15 225.31 C50.86 220.65 51.17 215.91 51.38 211.12 C51.39 209.54 51.4 207.95 51.4 206.37 C51.41 202.97 51.47 199.58 51.57 196.19 C51.72 190.81 51.76 185.44 51.78 180.07 C51.84 169.64 52.01 159.21 52.2 148.78 C52.43 135.5 52.62 122.21 52.69 108.93 C52.73 103.59 52.82 98.26 52.96 92.92 C53.03 89.6 53.06 86.28 53.08 82.96 C53.09 81.42 53.13 79.89 53.19 78.35 C53.59 67.07 53.59 67.07 50.93 63.61 C47.97 60.8 44.59 58.91 41 57 C39.7 56.12 38.4 55.23 37.13 54.3 C35.94 53.49 34.75 52.68 33.56 51.88 C27.12 47.47 20.71 43.03 14.31 38.56 C13.46 37.97 12.61 37.38 11.74 36.77 C10.93 36.21 10.13 35.65 9.3 35.07 C8.59 34.57 7.88 34.08 7.15 33.56 C6.44 33.05 5.73 32.53 5 32 C4.1 31.41 3.19 30.82 2.26 30.22 C0 28 0 28 -0.57 24.98 C-0.54 23.82 -0.52 22.67 -0.49 21.48 C-0.48 20.87 -0.47 20.25 -0.47 19.62 C-0.44 17.66 -0.38 15.71 -0.31 13.75 C-0.29 12.42 -0.26 11.09 -0.24 9.76 C-0.19 6.5 -0.1 3.25 0 0 Z " fill="#20B5D2" transform="translate(352,366)"/>
<path d="M0 0 C0 22.77 0 45.54 0 69 C-0.33 69 -0.66 69 -1 69 C-1 47.55 -1 26.1 -1 4 C-2.65 4.66 -4.3 5.32 -6 6 C-6.63 6.24 -7.27 6.48 -7.92 6.73 C-13.07 8.83 -17.74 11.37 -21 16 C-23.48 23.78 -22.79 32.26 -22.49 40.33 C-22.4 43.34 -22.39 46.35 -22.38 49.36 C-22.33 55.24 -22.2 61.12 -22 67 C-22.33 67 -22.66 67 -23 67 C-23.26 60.36 -23.45 53.72 -23.57 47.07 C-23.63 43.99 -23.7 40.9 -23.83 37.82 C-24.69 16.2 -24.69 16.2 -20.72 11.7 C-18.1 9.5 -15.18 8.25 -12 7 C-10.83 6.26 -9.68 5.5 -8.55 4.69 C-7.67 4.13 -6.79 3.57 -5.88 3 C-4.96 2.42 -4.05 1.85 -3.12 1.25 C-1 0 -1 0 0 0 Z " fill="#34B6D5" transform="translate(672,420)"/>
<path d="M0 0 C0 0.99 0 1.98 0 3 C-1.81 4.6 -1.81 4.6 -4.36 6.34 C-5.3 6.98 -6.24 7.63 -7.21 8.29 C-8.25 8.99 -9.28 9.68 -10.31 10.38 C-11.36 11.09 -12.41 11.81 -13.46 12.53 C-16.13 14.35 -18.8 16.16 -21.47 17.97 C-25.41 20.63 -29.33 23.32 -33.25 26 C-34.04 26.54 -34.82 27.07 -35.63 27.62 C-40.54 30.98 -45.38 34.42 -50.17 37.95 C-56.36 42.43 -62.68 46.71 -69 51 C-69.25 51.2 -69.25 51.2 -70.53 52.21 C-71.01 52.47 -71.5 52.73 -72 53 C-72.99 52.67 -73.98 52.34 -75 52 C-74.37 51.58 -73.73 51.17 -73.08 50.74 C-63.8 44.62 -54.71 38.23 -45.62 31.84 C-41.48 28.93 -37.33 26.03 -33.19 23.12 C-32.39 22.56 -31.58 22 -30.76 21.42 C-20.52 14.26 -10.26 7.13 0 0 Z " fill="#28E7CE" transform="translate(586,653)"/>
<path d="M0 0 C0.33 0 0.66 0 1 0 C1.14 1.41 1.23 2.83 1.31 4.25 C1.37 5.04 1.43 5.83 1.49 6.64 C0.79 10.02 -1.28 11.17 -4 13 C-5.1 13.8 -6.2 14.6 -7.3 15.4 C-8.49 16.25 -9.68 17.09 -10.88 17.94 C-11.46 18.35 -12.05 18.77 -12.65 19.2 C-13.24 19.62 -13.83 20.04 -14.43 20.46 C-14.72 20.68 -14.72 20.68 -16.19 21.74 C-17.43 22.6 -18.69 23.41 -19.97 24.19 C-23.46 26.38 -24.79 27.22 -25.9 31.33 C-25.91 32.48 -25.93 33.63 -25.94 34.81 C-25.95 35.41 -25.97 36.01 -25.99 36.62 C-26.02 38.08 -26.01 39.54 -26 41 C-25.01 40.84 -25.01 40.84 -20 40 C-24.75 43.88 -24.75 43.88 -27 45 C-28.23 38.72 -29.17 32.14 -27 26 C-22.58 20.72 -16.32 17.56 -10.36 14.31 C-1.58 9.43 -1.58 9.43 -0.1 5.76 C-0.09 5.08 -0.07 4.39 -0.06 3.69 C-0.05 3.34 -0.05 3.34 0.03 1.57 C0.02 1.05 0.01 0.54 0 0 Z " fill="#23D6CB" transform="translate(604,576)"/>
</svg>
